<svg width="420" height="670" viewBox="0 0 420 670" fill="none" xmlns="http://www.w3.org/2000/svg">
<rect opacity="0.7" width="420" height="670" rx="40" transform="matrix(-1 0 0 1 420 0)" fill="#2E3237"/>
<path fill-rule="evenodd" clip-rule="evenodd" d="M305.469 503H361.276C367.78 503 371.032 503 373.743 503.502C385.955 505.766 395.51 515.321 397.774 527.533C398.276 530.243 398.276 533.496 398.276 540V540C398.276 546.504 398.276 549.757 397.774 552.467C395.51 564.679 385.955 574.234 373.743 576.498C371.032 577 367.78 577 361.276 577H55.1035C48.599 577 45.3468 577 42.6364 576.498C30.424 574.234 20.8692 564.679 18.6058 552.467C18.1035 549.757 18.1035 546.504 18.1035 540V540C18.1035 533.496 18.1035 530.243 18.6058 527.533C20.8692 515.321 30.424 505.766 42.6364 503.502C45.3468 503 48.5991 503 55.1035 503H305.469Z" fill="white"/>
<path fill-rule="evenodd" clip-rule="evenodd" d="M398.276 71C398.276 54.1984 398.276 45.7976 395.006 39.3803C392.13 33.7354 387.54 29.146 381.896 26.2698C375.478 23 367.077 23 350.276 23H129.017C121.116 23 117.165 23 113.896 23.7397C102.617 26.2919 93.8092 35.0999 91.257 46.3791C90.5172 49.6482 90.5172 53.5988 90.5172 61.5V63.7931C90.5172 69.5596 90.5172 72.4428 90.122 74.8535C88.0387 87.5609 78.0782 97.5215 65.3707 99.6048C62.9601 100 60.0768 100 54.3103 100V100C48.5439 100 45.6606 100 43.25 100.395C30.5425 102.478 20.5819 112.439 18.4987 125.147C18.1035 127.557 18.1035 130.44 18.1035 136.207V437C18.1035 453.802 18.1035 462.202 21.3733 468.62C24.2495 474.265 28.8389 478.854 34.4837 481.73C40.9011 485 49.3019 485 66.1035 485H198.604C208.838 485 213.954 485 218.125 483.765C227.865 480.879 235.484 473.261 238.369 463.52C239.604 459.35 239.604 454.233 239.604 444V444C239.604 433.767 239.604 428.65 240.84 424.48C243.725 414.739 251.344 407.121 261.084 404.235C265.255 403 270.371 403 280.604 403H350.276C367.077 403 375.478 403 381.896 399.73C387.54 396.854 392.13 392.265 395.006 386.62C398.276 380.202 398.276 371.802 398.276 355V71Z" fill="white"/>
</svg>
